<svg width="85" height="85" viewBox="0 0 85 85" fill="none" xmlns="http://www.w3.org/2000/svg">
<g opacity="0.2">
<path d="M56.9331 10.5549L56.9331 -0.000201635L85 -0.000204089L85 28.0667L74.5249 28.0667L74.5249 10.5549L56.9331 10.5549Z" fill="#FFCF2D"/>
<path d="M37.9831 29.5053L37.9831 19.0302L66.0501 19.0302L66.0501 47.0171L55.495 47.0171L55.495 29.5053L37.9831 29.5053Z" fill="#FFCF2D"/>
<path d="M19.0316 48.5368L19.0316 37.9817L47.0186 37.9817L47.0186 66.0486L36.5435 66.0486L36.5435 48.5368L19.0316 48.5368Z" fill="#FFCF2D"/>
<path d="M4.99681e-05 67.4882L4.90453e-05 56.9331L28.067 56.9331L28.067 85L17.5119 85L17.5119 67.4882L4.99681e-05 67.4882Z" fill="#FFCF2D"/>
</g>
</svg>
