<svg width="163" height="177" viewBox="0 0 163 177" fill="none" xmlns="http://www.w3.org/2000/svg">
<g opacity="0.8" clip-path="url(#clip0_2249_2828)">
<path d="M66.479 19.0298C65.467 19.6141 64.2693 19.2925 63.6844 18.2794C63.0995 17.2663 63.4198 16.0683 64.4318 15.484C65.4438 14.8997 66.6415 15.2213 67.2265 16.2344C67.8114 17.2475 67.4067 18.4942 66.479 19.0298Z" fill="#FFCF2D"/>
<path d="M75.204 34.142C74.192 34.7263 72.9943 34.4047 72.4093 33.3916C71.8244 32.3785 72.1448 31.1804 73.1568 30.5962C74.1688 30.0119 75.3665 30.3335 75.9514 31.3466C76.4876 32.2753 76.1317 33.6064 75.204 34.142Z" fill="#FFCF2D"/>
<path d="M83.8802 49.1699C82.8682 49.7542 81.6705 49.4326 81.0855 48.4195C80.5006 47.4064 80.821 46.2083 81.833 45.624C82.845 45.0398 84.0427 45.3614 84.6276 46.3745C85.2125 47.3876 84.8079 48.6343 83.8802 49.1699Z" fill="#FFCF2D"/>
<path d="M92.6051 64.2811C91.5931 64.8654 90.3954 64.5438 89.8105 63.5307C89.2256 62.5176 89.5459 61.3195 90.5579 60.7352C91.5699 60.151 92.7676 60.4726 93.3526 61.4857C93.9375 62.4988 93.5328 63.7455 92.6051 64.2811Z" fill="#FFCF2D"/>
<path d="M101.33 79.3933C100.318 79.9776 99.1206 79.656 98.5357 78.6429C97.9508 77.6297 98.2711 76.4317 99.2831 75.8474C100.295 75.2631 101.493 75.5847 102.078 76.5978C102.614 77.5265 102.258 78.8577 101.33 79.3933Z" fill="#FFCF2D"/>
<path d="M110.055 94.5054C109.043 95.0897 107.846 94.7681 107.261 93.755C106.676 92.7419 106.996 91.5439 108.008 90.9596C109.02 90.3753 110.218 90.6969 110.803 91.71C111.388 92.7231 110.983 93.9699 110.055 94.5054Z" fill="#FFCF2D"/>
<path d="M118.731 109.533C117.719 110.118 116.522 109.796 115.937 108.783C115.352 107.77 115.672 106.572 116.684 105.987C117.696 105.403 118.894 105.725 119.479 106.738C120.064 107.751 119.659 108.998 118.731 109.533Z" fill="#FFCF2D"/>
<path d="M127.456 124.646C126.444 125.23 125.247 124.908 124.662 123.895C124.077 122.882 124.397 121.684 125.409 121.1C126.421 120.515 127.619 120.837 128.204 121.85C128.789 122.863 128.384 124.11 127.456 124.646Z" fill="#FFCF2D"/>
<path d="M136.182 139.758C135.17 140.342 133.972 140.02 133.387 139.007C132.802 137.994 133.122 136.796 134.134 136.212C135.146 135.628 136.344 135.949 136.929 136.962C137.465 137.891 137.109 139.222 136.182 139.758Z" fill="#FFCF2D"/>
<path d="M53.9133 26.2846C52.9013 26.8689 51.7036 26.5473 51.1187 25.5342C50.5338 24.5211 50.8541 23.323 51.8661 22.7387C52.8781 22.1544 54.0758 22.476 54.6607 23.4892C55.2457 24.5023 54.9253 25.7003 53.9133 26.2846Z" fill="#FFCF2D"/>
<path d="M62.6383 41.3968C61.6262 41.9811 60.4285 41.6594 59.8436 40.6463C59.2587 39.6332 59.579 38.4352 60.5911 37.8509C61.6031 37.2666 62.8008 37.5882 63.3857 38.6013C63.9219 39.53 63.6503 40.8125 62.6383 41.3968Z" fill="#FFCF2D"/>
<path d="M71.3145 56.4247C70.3024 57.0089 69.1047 56.6873 68.5198 55.6742C67.9349 54.6611 68.2552 53.4631 69.2673 52.8788C70.2793 52.2945 71.477 52.6161 72.0619 53.6292C72.6468 54.6423 72.3265 55.8404 71.3145 56.4247Z" fill="#FFCF2D"/>
<path d="M80.0394 71.5368C79.0274 72.1211 77.8297 71.7995 77.2448 70.7864C76.6599 69.7733 76.9802 68.5753 77.9922 67.991C79.0042 67.4067 80.2019 67.7283 80.7868 68.7414C81.3718 69.7545 81.0514 70.9525 80.0394 71.5368Z" fill="#FFCF2D"/>
<path d="M88.7646 86.649C87.7526 87.2333 86.5549 86.9117 85.97 85.8986C85.3851 84.8855 85.7054 83.6874 86.7174 83.1031C87.7294 82.5189 88.9271 82.8405 89.512 83.8536C90.0482 84.7822 89.7766 86.0647 88.7646 86.649Z" fill="#FFCF2D"/>
<path d="M97.4896 101.761C96.4775 102.345 95.2798 102.024 94.6949 101.011C94.11 99.9976 94.4303 98.7996 95.4424 98.2153C96.4544 97.631 97.6521 97.9526 98.237 98.9657C98.8219 99.9788 98.5016 101.177 97.4896 101.761Z" fill="#FFCF2D"/>
<path d="M106.166 116.788C105.154 117.372 103.956 117.051 103.371 116.038C102.786 115.025 103.107 113.827 104.119 113.242C105.131 112.658 106.328 112.98 106.913 113.993C107.498 115.006 107.178 116.204 106.166 116.788Z" fill="#FFCF2D"/>
<path d="M114.891 131.9C113.879 132.485 112.681 132.163 112.096 131.15C111.511 130.137 111.831 128.939 112.844 128.354C113.856 127.77 115.053 128.092 115.638 129.105C116.223 130.118 115.903 131.316 114.891 131.9Z" fill="#FFCF2D"/>
<path d="M123.616 147.012C122.604 147.597 121.406 147.275 120.821 146.262C120.236 145.249 120.557 144.051 121.569 143.467C122.581 142.882 123.778 143.204 124.363 144.217C124.9 145.146 124.628 146.428 123.616 147.012Z" fill="#FFCF2D"/>
<path d="M91.5264 4.56837C90.5144 5.15266 89.3167 4.83105 88.7318 3.81794C88.1469 2.80484 88.4672 1.60679 89.4792 1.02251C90.4912 0.438217 91.6889 0.759829 92.2739 1.77293C92.8588 2.78604 92.5384 3.98408 91.5264 4.56837Z" fill="#FFCF2D"/>
<path d="M100.251 19.6805C99.2394 20.2648 98.0417 19.9432 97.4567 18.9301C96.8718 17.917 97.1921 16.719 98.2042 16.1347C99.2162 15.5504 100.414 15.872 100.999 16.8851C101.535 17.8138 101.263 19.0963 100.251 19.6805Z" fill="#FFCF2D"/>
<path d="M108.928 34.7084C107.916 35.2927 106.718 34.9711 106.133 33.958C105.548 32.9449 105.869 31.7469 106.881 31.1626C107.893 30.5783 109.139 30.9843 109.675 31.913C110.26 32.9261 109.94 34.1242 108.928 34.7084Z" fill="#FFCF2D"/>
<path d="M117.653 49.8206C116.641 50.4049 115.443 50.0833 114.858 49.0702C114.273 48.0571 114.594 46.859 115.606 46.2747C116.618 45.6905 117.864 46.0965 118.4 47.0252C118.936 47.9539 118.665 49.2363 117.653 49.8206Z" fill="#FFCF2D"/>
<path d="M126.378 64.9328C125.366 65.5171 124.168 65.1955 123.583 64.1824C122.998 63.1693 123.318 61.9712 124.331 61.3869C125.343 60.8026 126.54 61.1242 127.125 62.1373C127.661 63.066 127.39 64.3485 126.378 64.9328Z" fill="#FFCF2D"/>
<path d="M135.103 80.045C134.091 80.6292 132.893 80.3076 132.308 79.2945C131.723 78.2814 132.043 77.0834 133.055 76.4991C134.067 75.9148 135.265 76.2364 135.85 77.2495C136.435 78.2626 136.115 79.4607 135.103 80.045Z" fill="#FFCF2D"/>
<path d="M143.779 95.0729C142.767 95.6571 141.569 95.3355 140.984 94.3224C140.4 93.3093 140.72 92.1113 141.732 91.527C142.744 90.9427 143.942 91.2643 144.527 92.2774C145.111 93.2905 144.791 94.4886 143.779 95.0729Z" fill="#FFCF2D"/>
<path d="M152.504 110.185C151.492 110.769 150.294 110.448 149.709 109.435C149.125 108.421 149.445 107.223 150.457 106.639C151.469 106.055 152.667 106.376 153.251 107.39C153.836 108.403 153.516 109.601 152.504 110.185Z" fill="#FFCF2D"/>
<path d="M161.229 125.297C160.217 125.881 159.019 125.56 158.434 124.547C157.849 123.534 158.17 122.336 159.182 121.751C160.194 121.167 161.392 121.489 161.976 122.502C162.513 123.43 162.241 124.713 161.229 125.297Z" fill="#FFCF2D"/>
<path d="M78.9605 11.8231C77.9484 12.4074 76.7507 12.0858 76.1658 11.0727C75.5809 10.0596 75.9856 8.81285 76.9133 8.27725C77.9253 7.69296 79.123 8.01457 79.7079 9.02768C80.2928 10.0408 79.9725 11.2388 78.9605 11.8231Z" fill="#FFCF2D"/>
<path d="M87.6854 26.9353C86.6734 27.5196 85.4757 27.198 84.8908 26.1849C84.3059 25.1718 84.6262 23.9737 85.6382 23.3894C86.6502 22.8051 87.8479 23.1267 88.4328 24.1399C88.969 25.0685 88.6974 26.351 87.6854 26.9353Z" fill="#FFCF2D"/>
<path d="M96.3619 41.9632C95.3498 42.5475 94.1521 42.2259 93.5672 41.2128C92.9823 40.1997 93.3026 39.0016 94.3147 38.4173C95.3267 37.833 96.5244 38.1546 97.1093 39.1677C97.6942 40.1809 97.3739 41.3789 96.3619 41.9632Z" fill="#FFCF2D"/>
<path d="M105.087 57.0754C104.075 57.6596 102.877 57.338 102.292 56.3249C101.707 55.3118 102.028 54.1138 103.04 53.5295C104.052 52.9452 105.249 53.2668 105.834 54.2799C106.419 55.293 106.099 56.4911 105.087 57.0754Z" fill="#FFCF2D"/>
<path d="M113.812 72.1875C112.8 72.7718 111.602 72.4502 111.017 71.4371C110.432 70.424 110.753 69.226 111.765 68.6417C112.777 68.0574 113.974 68.379 114.559 69.3921C115.095 70.3208 114.824 71.6032 113.812 72.1875Z" fill="#FFCF2D"/>
<path d="M122.537 87.2997C121.525 87.884 120.327 87.5624 119.742 86.5493C119.157 85.5362 119.477 84.3381 120.49 83.7538C121.502 83.1696 122.699 83.4912 123.284 84.5043C123.869 85.5174 123.549 86.7154 122.537 87.2997Z" fill="#FFCF2D"/>
<path d="M131.213 102.328C130.201 102.912 129.003 102.59 128.419 101.577C127.834 100.564 128.154 99.366 129.166 98.7817C130.178 98.1974 131.376 98.5191 131.961 99.5322C132.545 100.545 132.225 101.743 131.213 102.328Z" fill="#FFCF2D"/>
<path d="M139.938 117.44C138.926 118.024 137.728 117.702 137.143 116.689C136.559 115.676 136.879 114.478 137.891 113.894C138.903 113.31 140.101 113.631 140.686 114.644C141.27 115.657 140.95 116.855 139.938 117.44Z" fill="#FFCF2D"/>
<path d="M148.663 132.552C147.651 133.136 146.453 132.815 145.868 131.802C145.284 130.788 145.604 129.59 146.616 129.006C147.628 128.422 148.826 128.743 149.41 129.757C149.947 130.685 149.675 131.968 148.663 132.552Z" fill="#FFCF2D"/>
<path d="M41.4314 33.4903C40.4194 34.0746 39.2217 33.753 38.6368 32.7399C38.0518 31.7268 38.3722 30.5288 39.3842 29.9445C40.3962 29.3602 41.5939 29.6818 42.1788 30.6949C42.7637 31.708 42.3591 32.9547 41.4314 33.4903Z" fill="#FFCF2D"/>
<path d="M50.1566 48.6025C49.1446 49.1868 47.9469 48.8652 47.362 47.8521C46.777 46.839 47.0974 45.6409 48.1094 45.0566C49.1214 44.4724 50.3191 44.794 50.904 45.8071C51.4402 46.7357 51.0843 48.0669 50.1566 48.6025Z" fill="#FFCF2D"/>
<path d="M58.8328 63.6304C57.8208 64.2147 56.6231 63.8931 56.0381 62.88C55.4532 61.8669 55.7736 60.6688 56.7856 60.0845C57.7976 59.5002 58.9953 59.8219 59.5802 60.835C60.1651 61.8481 59.7605 63.0948 58.8328 63.6304Z" fill="#FFCF2D"/>
<path d="M67.5577 78.7426C66.5457 79.3269 65.348 79.0053 64.7631 77.9922C64.1782 76.979 64.4985 75.781 65.5105 75.1967C66.5225 74.6124 67.7203 74.934 68.3052 75.9471C68.8901 76.9602 68.4854 78.207 67.5577 78.7426Z" fill="#FFCF2D"/>
<path d="M76.2827 93.8547C75.2707 94.439 74.073 94.1174 73.488 93.1043C72.9031 92.0912 73.2235 90.8932 74.2355 90.3089C75.2475 89.7246 76.4452 90.0462 77.0301 91.0593C77.5663 91.988 77.2104 93.3191 76.2827 93.8547Z" fill="#FFCF2D"/>
<path d="M85.0079 108.967C83.9959 109.551 82.7982 109.23 82.2132 108.216C81.6283 107.203 81.9487 106.005 82.9607 105.421C83.9727 104.837 85.1704 105.158 85.7553 106.171C86.3402 107.185 85.9356 108.431 85.0079 108.967Z" fill="#FFCF2D"/>
<path d="M93.6841 123.995C92.6721 124.579 91.4744 124.258 90.8894 123.244C90.3045 122.231 90.6249 121.033 91.6369 120.449C92.6489 119.865 93.8466 120.186 94.4315 121.199C95.0164 122.212 94.6118 123.459 93.6841 123.995Z" fill="#FFCF2D"/>
<path d="M102.409 139.107C101.397 139.691 100.199 139.37 99.6144 138.357C99.0295 137.343 99.3498 136.145 100.362 135.561C101.374 134.977 102.572 135.298 103.156 136.312C103.741 137.325 103.337 138.571 102.409 139.107Z" fill="#FFCF2D"/>
<path d="M111.134 154.219C110.122 154.803 108.924 154.482 108.339 153.469C107.754 152.456 108.075 151.258 109.087 150.673C110.099 150.089 111.296 150.411 111.881 151.424C112.418 152.352 112.062 153.684 111.134 154.219Z" fill="#FFCF2D"/>
<path d="M28.8657 40.7451C27.8537 41.3294 26.656 41.0078 26.071 39.9947C25.4861 38.9815 25.8065 37.7835 26.8185 37.1992C27.8305 36.6149 29.0282 36.9365 29.6131 37.9496C30.198 38.9627 29.8777 40.1608 28.8657 40.7451Z" fill="#FFCF2D"/>
<path d="M37.5909 55.8573C36.5789 56.4415 35.3812 56.1199 34.7962 55.1068C34.2113 54.0937 34.5317 52.8957 35.5437 52.3114C36.5557 51.7271 37.7534 52.0487 38.3383 53.0618C38.8745 53.9905 38.6029 55.273 37.5909 55.8573Z" fill="#FFCF2D"/>
<path d="M46.2671 70.8851C45.2551 71.4694 44.0574 71.1478 43.4724 70.1347C42.8875 69.1216 43.2079 67.9236 44.2199 67.3393C45.2319 66.755 46.4296 67.0766 47.0145 68.0897C47.5994 69.1028 47.2791 70.3009 46.2671 70.8851Z" fill="#FFCF2D"/>
<path d="M52.1974 85.2469C52.7627 86.2261 54.0139 86.562 54.992 85.9973C55.9701 85.4326 56.3048 84.1811 55.7395 83.2019C55.1741 82.2227 53.9229 81.8867 52.9448 82.4515C51.9667 83.0162 51.6321 84.2677 52.1974 85.2469Z" fill="#FFCF2D"/>
<path d="M63.717 101.109C62.705 101.694 61.5073 101.372 60.9223 100.359C60.3374 99.346 60.6578 98.1479 61.6698 97.5636C62.6818 96.9793 63.8795 97.301 64.4644 98.3141C65.0006 99.2427 64.729 100.525 63.717 101.109Z" fill="#FFCF2D"/>
<path d="M72.4422 116.222C71.4302 116.806 70.2325 116.484 69.6475 115.471C69.0626 114.458 69.3829 113.26 70.395 112.676C71.407 112.092 72.6047 112.413 73.1896 113.426C73.7745 114.439 73.4542 115.637 72.4422 116.222Z" fill="#FFCF2D"/>
<path d="M81.1184 131.25C80.1064 131.834 78.9087 131.512 78.3237 130.499C77.7388 129.486 78.0591 128.288 79.0712 127.704C80.0832 127.119 81.2809 127.441 81.8658 128.454C82.4507 129.467 82.1304 130.665 81.1184 131.25Z" fill="#FFCF2D"/>
<path d="M87.0487 145.611C87.614 146.59 88.8652 146.926 89.8433 146.362C90.8214 145.797 91.1561 144.545 90.5907 143.566C90.0254 142.587 88.7742 142.251 87.7961 142.816C86.818 143.381 86.4834 144.632 87.0487 145.611Z" fill="#FFCF2D"/>
<path d="M98.5683 161.474C97.5562 162.058 96.3586 161.737 95.7736 160.723C95.1887 159.71 95.509 158.512 96.5211 157.928C97.5331 157.344 98.7308 157.665 99.3157 158.678C99.8519 159.607 99.5803 160.89 98.5683 161.474Z" fill="#FFCF2D"/>
<path d="M16.2997 48.0008C15.2877 48.5851 14.09 48.2635 13.5051 47.2504C12.9202 46.2373 13.2405 45.0392 14.2525 44.4549C15.2645 43.8707 16.4622 44.1923 17.0472 45.2054C17.6321 46.2185 17.3117 47.4165 16.2997 48.0008Z" fill="#FFCF2D"/>
<path d="M25.0247 63.113C24.0127 63.6973 22.815 63.3757 22.23 62.3626C21.6451 61.3494 21.9654 60.1514 22.9775 59.5671C23.9895 58.9828 25.1872 59.3044 25.7721 60.3175C26.3083 61.2462 26.0367 62.5287 25.0247 63.113Z" fill="#FFCF2D"/>
<path d="M33.7009 78.1409C32.6888 78.7252 31.4911 78.4036 30.9062 77.3904C30.3213 76.3773 30.6416 75.1793 31.6537 74.595C32.6657 74.0107 33.8634 74.3323 34.4483 75.3454C35.0332 76.3585 34.7129 77.5566 33.7009 78.1409Z" fill="#FFCF2D"/>
<path d="M42.4258 93.2531C41.4138 93.8373 40.2161 93.5157 39.6312 92.5026C39.0463 91.4895 39.3666 90.2915 40.3786 89.7072C41.3906 89.1229 42.5883 89.4445 43.1733 90.4576C43.7582 91.4707 43.4378 92.6688 42.4258 93.2531Z" fill="#FFCF2D"/>
<path d="M51.151 108.365C50.139 108.95 48.9413 108.628 48.3564 107.615C47.7715 106.602 48.0918 105.404 49.1038 104.819C50.1158 104.235 51.3135 104.557 51.8984 105.57C52.4346 106.498 52.163 107.781 51.151 108.365Z" fill="#FFCF2D"/>
<path d="M59.876 123.477C58.8639 124.062 57.6662 123.74 57.0813 122.727C56.4964 121.714 56.8167 120.516 57.8288 119.932C58.8408 119.347 60.0385 119.669 60.6234 120.682C61.2083 121.695 60.888 122.893 59.876 123.477Z" fill="#FFCF2D"/>
<path d="M68.5522 138.504C67.5401 139.089 66.3424 138.767 65.7575 137.754C65.1726 136.741 65.4929 135.543 66.505 134.958C67.517 134.374 68.7147 134.696 69.2996 135.709C69.8845 136.722 69.5642 137.92 68.5522 138.504Z" fill="#FFCF2D"/>
<path d="M77.2771 153.616C76.2651 154.201 75.0674 153.879 74.4825 152.866C73.8976 151.853 74.2179 150.655 75.2299 150.071C76.2419 149.486 77.4396 149.808 78.0245 150.821C78.6095 151.834 78.2891 153.032 77.2771 153.616Z" fill="#FFCF2D"/>
<path d="M86.0023 168.729C84.9903 169.313 83.7926 168.991 83.2077 167.978C82.6228 166.965 82.9431 165.767 83.9551 165.183C84.9671 164.599 86.1648 164.92 86.7497 165.933C87.2859 166.862 87.0143 168.144 86.0023 168.729Z" fill="#FFCF2D"/>
<path d="M3.81804 55.2066C2.80602 55.7908 1.60832 55.4692 1.02341 54.4561C0.438489 53.443 0.758816 52.245 1.77084 51.6607C2.78286 51.0764 3.98056 51.398 4.56547 52.4111C5.15039 53.4242 4.74573 54.671 3.81804 55.2066Z" fill="#FFCF2D"/>
<path d="M12.543 70.3187C11.531 70.903 10.3333 70.5814 9.74836 69.5683C9.16344 68.5552 9.48377 67.3571 10.4958 66.7729C11.5078 66.1886 12.7055 66.5102 13.2904 67.5233C13.8266 68.452 13.4707 69.7831 12.543 70.3187Z" fill="#FFCF2D"/>
<path d="M21.2194 85.3466C20.2074 85.9309 19.0097 85.6093 18.4248 84.5962C17.8399 83.5831 18.1602 82.385 19.1722 81.8008C20.1842 81.2165 21.3819 81.5381 21.9669 82.5512C22.5518 83.5643 22.1471 84.811 21.2194 85.3466Z" fill="#FFCF2D"/>
<path d="M29.9444 100.459C28.9324 101.043 27.7347 100.721 27.1497 99.7084C26.5648 98.6953 26.8852 97.4972 27.8972 96.9129C28.9092 96.3286 30.1069 96.6503 30.6918 97.6634C31.2767 98.6765 30.8721 99.9232 29.9444 100.459Z" fill="#FFCF2D"/>
<path d="M38.6693 115.571C37.6573 116.155 36.4596 115.834 35.8747 114.821C35.2898 113.807 35.6101 112.609 36.6221 112.025C37.6341 111.441 38.8318 111.762 39.4168 112.776C39.9529 113.704 39.597 115.035 38.6693 115.571Z" fill="#FFCF2D"/>
<path d="M47.3943 130.683C46.3823 131.267 45.1846 130.946 44.5996 129.933C44.0147 128.92 44.3351 127.722 45.3471 127.137C46.3591 126.553 47.5568 126.875 48.1417 127.888C48.7266 128.901 48.322 130.148 47.3943 130.683Z" fill="#FFCF2D"/>
<path d="M56.0707 145.711C55.0587 146.295 53.861 145.974 53.2761 144.961C52.6912 143.948 53.0115 142.749 54.0235 142.165C55.0355 141.581 56.2332 141.903 56.8182 142.916C57.4031 143.929 56.9984 145.175 56.0707 145.711Z" fill="#FFCF2D"/>
<path d="M64.7957 160.823C63.7837 161.408 62.586 161.086 62.001 160.073C61.4161 159.06 61.7365 157.862 62.7485 157.277C63.7605 156.693 64.9582 157.015 65.5431 158.028C66.128 159.041 65.7234 160.288 64.7957 160.823Z" fill="#FFCF2D"/>
<path d="M73.5206 175.935C72.5086 176.52 71.3109 176.198 70.726 175.185C70.1411 174.172 70.4614 172.974 71.4734 172.39C72.4854 171.805 73.6831 172.127 74.2681 173.14C74.8042 174.069 74.4483 175.4 73.5206 175.935Z" fill="#FFCF2D"/>
</g>
<defs>
<clipPath id="clip0_2249_2828">
<rect width="143" height="105" fill="white" transform="translate(91.2502) scale(1.00349) rotate(60)"/>
</clipPath>
</defs>
</svg>
